HIERARCHY
ROOT pelvis
{
  OFFSET 0 100 0
  CHANNELS 6 Xposition Yposition Zposition Zrotation Xrotation Yrotation
  JOINT pelvis_right_femur
  {
    OFFSET -10.78128 -3.44521 -0.5502486
    CHANNELS 3 Zrotation Xrotation Yrotation
    JOINT right_femur_tibia
    {
      OFFSET -0.8047443 -44.0398 -0.1307829
      CHANNELS 3 Zrotation Xrotation Yrotation
      JOINT right_tibia_foot
      {
        OFFSET 3.006224 -47.83518 -5
        CHANNELS 3 Zrotation Xrotation Yrotation
        End Site
        {
          OFFSET 0 -5 15
        }
      }
    }
  }
  JOINT pelvis_left_femur
  {
    OFFSET 10.78128 -3.44521 -0.5502486
    CHANNELS 3 Zrotation Xrotation Yrotation
    JOINT left_femur_tibia
    {
      OFFSET 0.8047443 -44.0398 -0.1307829
      CHANNELS 3 Zrotation Xrotation Yrotation
      JOINT left_tibia_foot
      {
        OFFSET -4.370144 -48.10324 -4.275266
        CHANNELS 3 Zrotation Xrotation Yrotation
        End Site
        {
          OFFSET 0 -5 15
        }
      }
    }
  }
  JOINT pelvis_spine1
  {
    OFFSET 0 6.468898 -3.129235
    CHANNELS 3 Zrotation Xrotation Yrotation
    JOINT spine1
    {
      OFFSET 0 23.15396 4.99043
      CHANNELS 3 Zrotation Xrotation Yrotation
      JOINT spine2
      {
        OFFSET 0 20.79997 -5.064912
        CHANNELS 3 Zrotation Xrotation Yrotation
        JOINT neck
        {
          OFFSET 0 14.38658 9.616178
          CHANNELS 3 Zrotation Xrotation Yrotation
          End Site
          {
            OFFSET 0 20 0
          }
        }
      }
      JOINT right_manubrium
      {
        OFFSET -5.722621 16.35077 3.967754
        CHANNELS 3 Zrotation Xrotation Yrotation
        JOINT right_clavicle
        {
          OFFSET -13.16364 1.694482 -4.693211
          CHANNELS 3 Zrotation Xrotation Yrotation
          JOINT right_humerus
          {
            OFFSET -28.5034 -0.3100689 -2.792744
            CHANNELS 3 Zrotation Xrotation Yrotation
            JOINT right_radius
            {
              OFFSET -25.15693 0.02248979 -1.271978
              CHANNELS 3 Zrotation Xrotation Yrotation
              End Site
              {
                OFFSET -15 0 0
              }
            }
          }
        }
      }
      JOINT left_manubrium
      {
        OFFSET 5.722621 16.35077 3.967754
        CHANNELS 3 Zrotation Xrotation Yrotation
        JOINT left_clavicle
        {
          OFFSET 13.16364 1.694482 -4.693211
          CHANNELS 3 Zrotation Xrotation Yrotation
          JOINT left_humerus
          {
            OFFSET 29.39168 -1.063119 -2.237045
            CHANNELS 3 Zrotation Xrotation Yrotation
            JOINT left_radius
            {
              OFFSET 24.59957 -0.9528479 0.9047498
              CHANNELS 3 Zrotation Xrotation Yrotation
              End Site
              {
                OFFSET 15 -0 -0
              }
            }
          }
        }
      }
    }
  }
}
MOTION
Frames: 23
Frame Time: 0.0416666666667
-67.50058 100.7544 3231.423 1.767659 -7.383947 4.129349 0.09224951 -20.86912 1.524625 -0 30.85103 -0 2.322298 -3.429772 -9.641892 -4.983859 11.56153 -7.50406 -0 14.32107 -0 -4.577787 -18.45125 13.39654 0.4260164 -1.537747 6.600297 1.806407 12.71336 -8.077902 0.05430433 21.85246 5.215341 2.9111 -22.08604 5.06265 -3.669446 -24.02645 12.22595 93.5323 23.25778 -19.16434 -0 0 15.18489 -18.99703 8.685448 5.480337 5.079696 -25.78275 -5.898082 -90.42777 10.23081 23.20176 0 0 -15.16596 15.76656 14.5151 -8.974146
-67.14957 99.71324 3237.601 1.762363 -7.055931 4.728508 0.4263855 -23.70332 1.209309 -0 23.35641 -0 2.285001 -3.831362 -10.10274 -4.884492 14.83202 -7.347879 -0 15.04434 -0 -5.375012 -19.68353 13.0044 0.3507682 -1.366747 6.403866 1.933515 12.23384 -8.246457 0.03836021 21.86641 5.508659 3.106526 -22.56123 5.272861 -3.690097 -23.27925 12.10542 93.84246 23.99594 -19.93629 -0 0 14.13664 -18.57981 8.192328 4.828343 5.560291 -25.8447 -5.437509 -90.01728 10.17624 21.73536 0 0 -16.27473 16.42613 14.40355 -9.943752
-66.89377 98.59977 3244.138 1.786599 -7.062314 5.189921 0.9173851 -24.83622 1.130952 -0 18.11622 -0 2.19566 -3.896334 -10.45531 -4.766393 17.52891 -7.374439 -0 17.61127 -0 -6.228071 -20.0798 12.86152 0.2838299 -1.234967 6.264214 2.049111 11.81576 -8.381858 0.03470711 21.85473 5.749099 3.251708 -23.01201 5.482968 -3.689198 -22.70687 11.99971 94.06758 24.70015 -20.5269 -0 0 13.35443 -18.18638 7.810459 4.285396 5.953617 -25.84439 -4.979065 -89.75499 10.13756 20.64063 0 0 -17.03567 16.98665 14.30716 -10.74214
-66.73532 97.69353 3251.042 1.779316 -7.413311 5.514618 1.592855 -24.19615 1.40179 -0 15.63469 -0 1.895041 -3.838449 -10.69607 -4.533553 19.38507 -7.558484 -0 22.07073 -0 -7.116148 -19.34633 12.93844 0.2340624 -1.155343 6.182841 2.147358 11.50669 -8.476406 0.04494387 21.82605 5.915496 3.321378 -23.41084 5.684583 -3.675606 -22.35631 11.92264 94.20255 25.2733 -20.89606 -0 0 12.8687 -17.85949 7.584763 3.92424 6.210773 -25.78502 -4.573741 -89.63985 10.14589 19.99594 0 0 -17.41309 17.39505 14.24417 -11.287
-66.66658 97.22753 3258.234 1.692176 -8.005289 5.666387 2.394648 -21.85122 2.040202 -0 15.64591 -0 1.360559 -4.12168 -10.7922 -4.153064 19.95202 -7.814653 -0 28.24759 -0 -7.988023 -17.3937 13.15648 0.2051255 -1.132256 6.160428 2.220623 11.34127 -8.523064 0.06682852 21.79466 5.991791 3.301862 -23.72047 5.859947 -3.658149 -22.25308 11.8847 94.24275 25.6405 -21.01513 -0 0 12.69091 -17.63439 7.530198 3.790949 6.296365 -25.67627 -4.271046 -89.65834 10.21733 19.8387 0 0 -17.39946 17.61211 14.22647 -11.52459
-66.65876 97.3226 3265.535 1.537958 -8.668107 5.589238 3.156231 -18.18099 2.897448 -0 17.16049 -0 0.6838495 -5.092335 -10.68168 -3.721251 18.74826 -7.983373 -0 35.65576 -0 -8.623275 -14.52828 13.49867 0.1927169 -1.161676 6.201514 2.258626 11.33191 -8.514298 0.09518081 21.77655 5.968683 3.195194 -23.8976 5.983475 -3.64202 -22.40141 11.8885 94.17936 25.77663 -20.8638 -0 0 12.83033 -17.53062 7.625104 3.890638 6.199113 -25.52799 -4.103812 -89.79796 10.34563 20.17058 0 0 -16.99739 17.6209 14.256 -11.44234
-66.66708 97.94482 3272.725 1.420803 -9.285664 5.255985 3.676 -13.81235 3.671624 -0 18.79503 -0 0.02053152 -6.568353 -10.28161 -3.416076 15.57191 -7.919173 -0 43.44882 -0 -8.788388 -11.53847 14.05143 0.1869663 -1.234438 6.312854 2.251035 11.46722 -8.444388 0.1241315 21.78366 5.84602 3.017965 -23.90585 6.0306 -3.628315 -22.78605 11.92774 94.00461 25.7084 -20.43754 -0 0 13.29425 -17.54868 7.822579 4.187313 5.935215 -25.34828 -4.080047 -90.05298 10.50496 20.9612 0 0 -16.21803 17.43152 14.32644 -11.07073
-66.65223 98.92315 3279.637 1.468868 -9.859091 4.701624 3.865415 -9.261688 4.077539 -0 19.42418 -0 -0.450602 -7.928226 -9.523979 -3.314996 10.69328 -7.615001 -0 50.42088 -0 -8.561923 -9.376212 14.92683 0.1790172 -1.34019 6.496854 2.192512 11.71906 -8.313774 0.14922 21.81876 5.634304 2.795548 -23.73068 5.988221 -3.615801 -23.37508 11.99105 93.72184 25.49006 -19.75921 -0 0 14.07288 -17.67294 8.074119 4.619757 5.541335 -25.14623 -4.186325 -90.42026 10.66038 22.15139 0 0 -15.09377 17.0766 14.42748 -10.47018
-66.59625 100.0128 3286.218 1.686798 -10.37867 4.000275 3.826023 -4.70829 4.081368 -0 18.68259 -0 -0.5770699 -8.782344 -8.436017 -3.264099 4.689614 -7.152125 -0 55.10758 -0 -8.315103 -8.516512 16.10884 0.1666992 -1.47048 6.747157 2.085903 12.05571 -8.130676 0.168448 21.87409 5.351715 2.553303 -23.38441 5.858775 -3.602306 -24.12779 12.06819 93.34829 25.17016 -18.87754 -0 0 15.13095 -17.88016 8.351225 5.127924 5.058939 -24.93347 -4.399664 -90.89322 10.78124 23.66655 0 0 -13.68232 16.59517 14.54831 -9.703785
-66.49212 100.958 3292.516 1.909886 -10.6722 3.211709 3.747176 -0.2065341 3.930523 -0 16.91151 -0 -0.3218728 -9.419326 -7.174087 -2.969208 -1.840562 -6.546998 -0 56.20128 -0 -8.278624 -8.640815 17.36791 0.1553365 -1.620137 7.04979 1.941253 12.45213 -7.908554 0.1824305 21.93426 5.018162 2.309413 -22.89968 5.656925 -3.584918 -25.00414 12.154 92.90905 24.77281 -17.85249 -0 0 16.41464 -18.14842 8.652549 5.673242 4.521123 -24.72185 -4.697519 -91.46044 10.85035 25.43323 0 0 -12.05693 16.01677 14.67899 -8.814433
-66.32105 101.5471 3298.639 1.943081 -10.49135 2.362785 3.728281 4.045845 3.902768 -0 14.7842 -0 0.1908544 -10.44082 -5.92167 -2.236189 -8.34815 -5.769195 -0 53.24953 -0 -8.332487 -9.016051 18.39107 0.154949 -1.786224 7.385291 1.773301 12.89007 -7.663656 0.1940182 21.98079 4.652781 2.073719 -22.32297 5.405278 -3.560904 -25.9645 12.24786 92.43266 24.30102 -16.74723 -0 0 17.85576 -18.4605 8.995497 6.239772 3.952499 -24.52161 -5.058512 -92.10355 10.86535 27.37562 0 0 -10.30552 15.36072 14.81052 -7.826506
-66.04963 101.6618 3304.708 1.728697 -9.7501 1.480952 3.716817 7.785603 4.078255 -0 12.99057 -0 0.7795159 -12.0892 -4.778625 -1.149209 -14.2771 -4.890876 -0 47.06208 -0 -8.271595 -9.122127 19.00413 0.1763834 -1.964901 7.728472 1.599671 13.35061 -7.4151 0.2071711 21.99695 4.276632 1.851821 -21.71268 5.132048 -3.530199 -26.95853 12.35016 91.95373 23.75304 -15.63436 -0 0 19.36298 -18.80208 9.398742 6.820013 3.379394 -24.34304 -5.457584 -92.79017 10.83466 29.39033 0 0 -8.545201 14.64986 14.93459 -6.769371
-65.64812 101.3025 3310.829 1.377127 -8.624621 0.6160015 3.581363 10.89055 4.356251 -0 12.06328 -0 1.366906 -13.98937 -3.771429 -0.05006808 -19.11602 -4.124848 -0 39.37088 -0 -8.072007 -8.915773 19.25141 0.2269028 -2.148344 8.049242 1.438302 13.80841 -7.184422 0.2248455 21.97292 3.915386 1.650421 -21.13247 4.86692 -3.496734 -27.91759 12.4586 91.51373 23.13989 -14.59979 -0 0 20.81852 -19.15876 9.863686 7.398971 2.837817 -24.19872 -5.864706 -93.46874 10.77171 31.33125 0 0 -6.924727 13.92355 15.04348 -5.699115
-65.10554 100.5758 3317.102 1.069746 -7.433394 -0.1810897 3.209427 13.38484 4.607193 -0 12.3384 -0 2.004763 -15.38241 -2.917245 0.6520516 -22.53249 -3.701117 -0 32.03219 -0 -7.842264 -8.648059 19.3054 0.3063265 -2.324129 8.31769 1.303475 14.23335 -6.992021 0.2468561 21.90945 3.597375 1.480355 -20.63595 4.633874 -3.465901 -28.7622 12.56692 91.15268 22.49432 -13.73079 -0 0 22.09623 -19.51417 10.36463 7.947474 2.370487 -24.10244 -6.250613 -94.07479 10.68985 33.02988 0 0 -5.595351 13.23678 15.13016 -4.697896
-64.4298 99.65925 3323.623 0.9498602 -6.462273 -0.8729748 2.564905 15.29001 4.782176 -0 14.03785 -0 2.756791 -15.52124 -2.272017 0.698184 -24.42234 -3.71633 -0 26.37789 -0 -7.629724 -8.559298 19.31816 0.4059622 -2.477299 8.510545 1.202944 14.59664 -6.852683 0.2693158 21.81739 3.348457 1.356004 -20.2533 4.445905 -3.44018 -29.41935 12.66627 90.89778 21.86783 -13.0968 -0 0 23.08972 -19.84894 10.85292 8.425837 2.016276 -24.06548 -6.593856 -94.54617 10.59933 34.33679 0 0 -4.669877 12.64762 15.18844 -3.853764
-63.63921 98.76303 3330.452 1.070965 -5.878879 -1.419122 1.702746 16.51666 4.916958 -0 17.35859 -0 3.601117 -13.99323 -1.947278 0.08322061 -24.83975 -4.088188 -0 22.97666 -0 -7.33535 -8.715353 19.31968 0.5109685 -2.593267 8.61446 1.138179 14.87518 -6.773636 0.2860467 21.71399 3.187818 1.292076 -19.99005 4.305568 -3.417482 -29.83586 12.74764 90.75901 21.31975 -12.73857 -0 0 23.72846 -20.14071 11.26995 8.791891 1.801589 -24.09347 -6.882613 -94.83625 10.50694 35.15073 0 0 -4.202815 12.20508 15.21357 -3.24025
-62.75326 98.09702 3337.584 1.39543 -5.737861 -1.755831 0.7570526 16.86757 5.057504 -0 22.44188 -0 4.441597 -10.91759 -2.067128 -0.9947609 -23.89681 -4.645442 -0 21.70105 -0 -6.808097 -9.029773 19.21116 0.6048045 -2.660263 8.62552 1.106814 15.0527 -6.7555 0.2911031 21.61824 3.125992 1.299163 -19.83668 4.209768 -3.393997 -29.98281 12.80368 90.73354 20.90387 -12.66892 -0 0 23.97758 -20.36684 11.56156 9.00955 1.737796 -24.18548 -7.11115 -94.91903 10.41754 35.42315 0 0 -4.198651 11.94306 15.20362 -2.906287
-61.78777 97.83856 3344.913 1.818647 -6.0167 -1.800957 -0.0901786 16.11213 5.173878 -0 29.19542 -0 5.168051 -6.991977 -2.678291 -2.266099 -21.70346 -5.270473 -0 21.92536 -0 -6.020534 -9.394145 18.84592 0.67392 -2.671414 8.547422 1.105305 15.11979 -6.794252 0.2813327 21.54695 3.16392 1.379102 -19.78117 4.155246 -3.369368 -29.85564 12.82952 90.81318 20.65591 -12.87758 -0 0 23.83173 -20.50958 11.68985 9.057259 1.822333 -24.33431 -7.274596 -94.78934 10.33682 35.15081 0 0 -4.631129 11.87802 15.16127 -2.873201
-60.75882 98.09069 3352.234 2.207912 -6.635753 -1.486693 -0.6686557 14.06482 5.139503 -0 37.03895 -0 5.667162 -3.306885 -3.683695 -3.495532 -18.37181 -5.963758 -0 22.75734 -0 -5.153652 -9.801637 18.15563 0.7111579 -2.626298 8.390128 1.130664 15.07428 -6.882884 0.2578807 21.51177 3.292756 1.52202 -19.81765 4.142147 -3.350306 -29.47389 12.8232 90.98985 20.58532 -13.33517 -0 0 23.31166 -20.56078 11.64105 8.934104 2.040414 -24.52683 -7.365578 -94.46234 10.27312 34.37006 0 0 -5.455934 12.00792 15.09467 -3.133686
-59.69477 98.83204 3359.302 2.452446 -7.446705 -0.8039484 -0.9016489 10.62537 4.819466 -0 44.72992 -0 5.798017 -0.8775763 -4.863151 -4.511029 -14.08352 -6.757664 -0 23.2856 -0 -4.473254 -10.36273 17.24057 0.71677 -2.531012 8.168839 1.181049 14.9216 -7.012654 0.2256379 21.51702 3.495608 1.707895 -19.9475 4.174052 -3.34913 -28.87941 12.78589 91.25614 20.67616 -13.99721 -0 0 22.46333 -20.52251 11.42714 8.659395 2.3672 -24.74551 -7.374945 -93.97214 10.23586 33.15468 0 0 -6.611999 12.31298 15.01578 -3.653273
-58.64522 99.88461 3365.931 2.507563 -8.216066 0.1721058 -0.8520365 5.80951 4.21121 -0 50.5001 -0 5.444172 -0.08576568 -5.996956 -5.191781 -9.166189 -7.558348 -0 22.84311 -0 -4.084744 -11.20811 16.32057 0.6965141 -2.395943 7.902237 1.255211 14.67365 -7.174204 0.190578 21.55864 3.752131 1.914169 -20.1729 4.254172 -3.376494 -28.12842 12.72172 91.60138 20.89902 -14.8108 -0 0 21.35476 -20.40285 11.07938 8.263505 2.772707 -24.97183 -7.296125 -93.3665 10.22959 31.60844 0 0 -8.019614 12.76081 14.9352 -4.378416
-57.67208 100.9437 3372.087 2.40374 -8.67577 1.301819 -0.6672592 -0.153748 3.479389 -0 52.65222 -0 4.65027 -0.5086203 -6.993328 -5.48708 -4.066149 -8.122895 -0 21.23873 -0 -3.8667 -12.39281 15.55587 0.6577077 -2.232111 7.609689 1.351187 14.34538 -7.358474 0.1567251 21.62537 4.044269 2.125648 -20.48825 4.380385 -3.433089 -27.27755 12.63649 92.00705 21.22898 -15.7238 -0 0 20.06673 -20.21005 10.63536 7.774381 3.22989 -25.19084 -7.129097 -92.69696 10.2476 29.84577 0 0 -9.586516 13.31547 14.85671 -5.25169
-56.82371 101.6835 3377.903 2.21609 -8.668109 2.43596 -0.4629472 -6.701272 2.809757 -0 50.39295 -0 3.677108 -1.39264 -7.86881 -5.459813 0.8190757 -8.261325 -0 18.83721 -0 -3.720792 -13.89292 14.92962 0.6057874 -2.048656 7.308888 1.465276 13.95108 -7.557009 0.1251619 21.70219 4.35926 2.338726 -20.87749 4.543817 -3.507758 -26.37263 12.53565 92.4466 21.6571 -16.691 -0 0 18.68139 -19.94971 10.1275 7.209549 3.720882 -25.39299 -6.879804 -92.01012 10.27173 27.97061 0 0 -11.22068 13.94597 14.77627 -6.225684
